<?xml version="1.0" encoding="UTF-8" standalone="no"?>
<!-- Created with Inkscape (http://www.inkscape.org/) -->
<svg
   xmlns:dc="http://purl.org/dc/elements/1.1/"
   xmlns:cc="http://creativecommons.org/ns#"
   xmlns:rdf="http://www.w3.org/1999/02/22-rdf-syntax-ns#"
   xmlns:svg="http://www.w3.org/2000/svg"
   xmlns="http://www.w3.org/2000/svg"
   xmlns:xlink="http://www.w3.org/1999/xlink"
   xmlns:sodipodi="http://sodipodi.sourceforge.net/DTD/sodipodi-0.dtd"
   xmlns:inkscape="http://www.inkscape.org/namespaces/inkscape"
   width="640"
   height="480"
   id="svg5109"
   sodipodi:version="0.32"
   inkscape:version="0.46"
   version="1.0"
   sodipodi:docname="newgaul.svg"
   inkscape:output_extension="org.inkscape.output.svg.inkscape">
  <defs
     id="defs5111">
    <linearGradient
       id="linearGradient5082">
      <stop
         id="stop5090"
         offset="0"
         style="stop-color:#d3d3d3;stop-opacity:1;" />
      <stop
         style="stop-color:#565656;stop-opacity:1;"
         offset="1"
         id="stop5086" />
    </linearGradient>
    <linearGradient
       inkscape:collect="always"
       xlink:href="#linearGradient5082"
       id="linearGradient5107"
       gradientUnits="userSpaceOnUse"
       x1="851.46997"
       y1="175.53346"
       x2="871.23273"
       y2="209.94121"
       gradientTransform="matrix(-0.7450592,0,0,0.7483499,739.34426,97.136533)" />
    <inkscape:perspective
       sodipodi:type="inkscape:persp3d"
       inkscape:vp_x="0 : 526.18109 : 1"
       inkscape:vp_y="0 : 1000 : 0"
       inkscape:vp_z="744.09448 : 526.18109 : 1"
       inkscape:persp3d-origin="372.04724 : 350.78739 : 1"
       id="perspective5117" />
    <linearGradient
       inkscape:collect="always"
       xlink:href="#linearGradient5082"
       id="linearGradient5665"
       gradientUnits="userSpaceOnUse"
       gradientTransform="matrix(-0.7450592,0,0,0.7483499,739.34426,97.136533)"
       x1="851.46997"
       y1="175.53346"
       x2="871.23273"
       y2="209.94121" />
  </defs>
  <sodipodi:namedview
     id="base"
     pagecolor="#424242"
     bordercolor="#666666"
     borderopacity="1.0"
     gridtolerance="10000"
     guidetolerance="10"
     objecttolerance="10"
     inkscape:pageopacity="1"
     inkscape:pageshadow="2"
     inkscape:zoom="0.98994949"
     inkscape:cx="318.23393"
     inkscape:cy="267.50014"
     inkscape:document-units="px"
     inkscape:current-layer="layer1"
     showgrid="false"
     inkscape:window-width="1280"
     inkscape:window-height="773"
     inkscape:window-x="0"
     inkscape:window-y="0" />
  <metadata
     id="metadata5114">
    <rdf:RDF>
      <cc:Work
         rdf:about="">
        <dc:format>image/svg+xml</dc:format>
        <dc:type
           rdf:resource="http://purl.org/dc/dcmitype/StillImage" />
      </cc:Work>
    </rdf:RDF>
  </metadata>
  <g
     inkscape:label="Layer 1"
     inkscape:groupmode="layer"
     id="layer1">
    <g
       id="g5658"
       transform="matrix(1.6633933,-0.1625561,0.1625561,1.6633933,-84.636217,-73.616755)">
      <path
         style="fill:url(#linearGradient5665);fill-opacity:1;fill-rule:evenodd;stroke:#000000;stroke-width:0.59833038px;stroke-linecap:butt;stroke-linejoin:miter;stroke-opacity:1"
         d="M 108.47824,226.79923 L 99.526138,238.68473 L 97.46818,245.40263 L 95.821815,256.77137 L 96.027615,261.62892 L 91.500114,257.59819 L 88.001592,249.64007 L 87.795791,244.26575 L 93.352272,237.13445 L 98.908752,227.93611 L 103.33335,225.97242 L 108.47824,226.79923 z"
         id="path5080" />
      <path
         style="fill:#c9af24;fill-opacity:1;fill-rule:evenodd;stroke:none;stroke-width:1px;stroke-linecap:butt;stroke-linejoin:miter;stroke-opacity:1"
         d="M 91.164588,244.44598 L 92.219607,246.41917 L 92.146844,247.95387 L 91.601148,248.6116 C 91.601148,248.6116 89.418355,248.50197 89.272838,247.47885 C 89.12732,246.45571 89.236457,244.73831 89.236457,244.73831 C 89.236457,244.73831 89.927678,243.09398 91.164588,244.44598 z"
         id="path5092" />
      <path
         sodipodi:nodetypes="cccccccccccccccccc"
         id="path5145"
         d="M 105.43467,226.70425 L 111.87439,226.19917 L 114.77858,224.242 L 117.30396,219.1281 L 118.44039,206.05926 L 116.73575,196.46281 L 113.01082,184.65665 L 111.30619,165.96883 L 112.37947,151.38475 L 111.74813,147.281 L 108.90707,150.50087 L 106.06602,159.1503 L 105.119,184.59351 L 103.98258,191.09637 L 104.55079,210.85748 L 105.18213,215.78197 L 103.85631,226.0729 L 105.43467,226.70425 z"
         style="fill:#ffffff;fill-opacity:1;fill-rule:evenodd;stroke:none;stroke-width:1px;stroke-linecap:butt;stroke-linejoin:miter;stroke-opacity:1" />
      <path
         id="path5656"
         d="M 97.5,230.08929 L 101.16071,216.42857 L 100,195.44643 L 99.553572,177.14286 L 100.08929,163.03571 L 105.53571,142.85714 L 103.125,143.48214 L 99.375,146.16071 L 94.017857,156.51786 L 90.267857,174.375 L 87.678572,177.76786 L 85,186.78571 L 84.821429,198.125 C 84.821429,198.125 85.178572,200.71428 83.303572,204.01786 C 81.428572,207.32143 81.875,214.10714 81.875,214.10714 L 84.017857,220.35714 L 82.053572,222.05357 L 80.803572,228.48214 C 80.803572,228.48214 81.875,231.78571 82.410715,232.14286 C 82.946429,232.5 81.517857,235.17857 81.607143,237.23214 C 81.696429,239.28571 81.339286,243.92857 81.339286,243.92857 L 81.696429,246.69643 L 84.375,248.21429 L 87.410715,245.17857 L 92.5,238.30357 L 97.5,230.08929 z"
         style="fill:#ffffff;fill-opacity:1;fill-rule:evenodd;stroke:none;stroke-width:1px;stroke-linecap:butt;stroke-linejoin:miter;stroke-opacity:1" />
      <path
         sodipodi:nodetypes="ccccsssssssssssccscccsssssssscccccssssssssssssssssssssssssscccssssssssssscccsscccssssccssccsssccsssccssssssscccssssssssssssssccsssssssssccssccssccsssccssccssssccssc"
         style="fill:#000000"
         d="M 94.904003,259.73317 C 91.153293,256.50852 88.183375,250.64948 88.173019,246.45432 L 88.165739,243.5069 L 86.646593,245.14471 C 83.950299,248.05163 80.875327,246.97997 81.759519,243.44151 C 82.168966,241.80295 82.379475,241.73786 84.828269,242.49274 C 86.666352,243.05936 87.693059,243.06653 88.240596,242.51657 C 88.78814,241.96661 88.468293,241.83659 87.17756,242.08442 C 84.550444,242.58884 82.205265,240.01893 82.205265,236.63563 C 82.205265,235.17076 81.892527,234.16638 81.510282,234.40366 C 81.128044,234.64094 80.876586,237.73957 80.951487,241.28951 C 81.061875,246.52123 81.334187,247.89992 82.388952,248.56738 C 83.352225,249.17693 84.075334,249.14927 85.172822,248.46085 C 87.243386,247.16205 87.293804,247.19735 87.852591,250.33718 C 88.551248,254.26288 91.802858,259.8778 94.201867,261.30119 C 97.80703,263.44021 98.198625,262.5657 94.904003,259.73317 z M 102.76872,234.25121 C 105.02253,231.58283 109.0274,227.10105 109.0274,226.69177 C 109.0274,226.2825 107.97828,225.7162 106.69603,225.43333 L 104.36465,224.91901 L 104.88676,220.32251 C 105.46948,215.19238 105.47123,215.68986 104.84206,207.58347 C 104.48175,202.94099 104.58426,201.81009 105.32378,202.26916 C 106.03261,202.70917 106.1461,202.31986 105.78611,200.68314 C 104.81629,196.27369 104.43733,188.73179 105.09869,187.00246 C 105.67743,185.48919 106.15533,186.53841 108.25839,193.93958 C 109.6212,198.73562 110.87578,202.51948 111.04634,202.34816 C 111.21691,202.17685 110.24907,197.70811 108.89559,192.41764 C 106.61547,183.50512 106.43417,181.91915 106.4272,170.82501 C 106.41929,158.21356 106.99432,154.84669 109.94202,150.24539 L 111.61996,147.62616 L 112.06927,151.36791 L 112.51859,155.10966 L 112.63564,151.22499 C 112.7744,146.61972 112.07582,145.91187 109.7968,148.34849 C 105.9737,152.43597 103.00375,167.96766 104.28254,177.18598 C 104.78779,180.82814 104.7017,182.80233 103.93989,185.04366 C 103.2213,187.15783 103.07753,189.57571 103.45039,193.27551 C 104.05704,199.29501 104.05079,201.09789 103.40884,205.24913 C 103.12049,207.11374 103.36195,209.4554 104.04914,211.45879 C 105.02825,214.31323 105.02503,214.93138 104.02054,216.95382 C 103.29942,218.40573 103.02025,220.40459 103.25118,222.46247 C 103.58262,225.41596 103.45904,225.72201 101.80692,226.03923 C 100.37189,226.31476 100.09893,226.13636 100.48006,225.17199 C 102.20058,220.81866 102.40226,214.10393 101.1526,202.78117 C 100.43931,196.31828 99.872453,185.97909 99.892935,179.80521 C 99.932065,168.00587 99.749749,169.05599 105.27775,148.78884 C 107.11488,142.05346 106.56815,140.93916 102.50875,143.14525 C 96.562796,146.3766 92.58672,154.76265 91.039619,167.33512 C 90.503229,171.69412 89.847569,174.00003 88.86348,174.98846 C 85.454491,178.41251 83.204993,189.64504 84.376919,197.39143 C 84.999439,201.50627 84.999633,201.50568 85.119095,195.14638 C 85.18481,191.64784 85.685378,186.90926 86.231461,184.6162 C 87.392994,179.73877 89.582239,174.8069 90.368991,175.29529 C 90.671262,175.48293 90.995057,177.92145 91.08854,180.71423 C 91.539673,194.19226 92.332826,193.84935 92.325621,180.17938 C 92.318804,167.25534 92.511655,164.89618 94.012011,159.54943 C 95.973439,152.5596 99.290085,146.31405 101.98099,144.54311 C 103.01361,143.86352 104.03183,143.48161 104.24369,143.69441 C 104.45556,143.9072 103.37327,148.24648 101.83862,153.33723 L 99.048328,162.59316 L 99.008713,178.68268 C 98.986928,187.53192 99.374985,198.52757 99.871067,203.11746 C 101.09787,214.46818 99.753758,223.53734 95.533146,232.38684 C 93.911018,235.788 91.975041,238.95265 91.23098,239.41937 C 89.971696,240.20928 90.031234,240.40535 92.092045,242.25482 C 93.923475,243.89843 94.298233,244.80235 94.261345,247.48717 C 94.205302,251.56573 93.201282,252.72928 90.941115,251.33496 C 89.297335,250.3209 89.295138,250.32559 90.680963,251.89088 C 92.281521,253.69872 94.440487,253.06647 95.233215,250.55777 C 95.935769,248.33445 94.897804,244.04521 93.307371,242.59953 C 91.433197,240.89593 91.504626,240.37861 94.061773,237.13569 C 95.255679,235.62161 96.814104,233.15782 97.524935,231.66059 C 99.032078,228.48612 102.53101,226.33212 105.5899,226.69567 L 107.74034,226.95125 L 104.47231,230.98682 C 98.329286,238.57258 97.275944,241.15482 95.956183,251.86382 C 95.521307,255.39253 95.3347,255.72018 94.238464,254.87986 C 93.562055,254.36136 93.729529,254.76884 94.610629,255.78536 C 97.512932,260.47676 95.323479,243.836 102.76872,234.25121 z M 92.636095,247.24832 C 92.636095,246.26974 92.049361,245.02314 91.332241,244.4781 C 90.223019,243.63505 90.167408,243.64372 90.959712,244.53615 C 92.150935,245.8779 92.208908,248.56487 91.030857,247.83359 C 90.497916,247.50275 90.372925,247.6283 90.702301,248.16359 C 91.597259,249.61807 92.636095,249.12639 92.636095,247.24832 z M 89.467969,246.40835 C 89.476239,244.76198 89.330424,244.00034 89.143943,244.71583 C 88.957462,245.43132 88.950697,246.77835 89.128907,247.70923 C 89.307118,248.64011 89.459699,248.05472 89.467969,246.40835 z M 91.371409,234.10917 C 92.066989,232.92645 92.634843,231.67397 92.633308,231.32589 C 92.631781,230.9778 91.94316,231.82544 91.103039,233.20953 C 90.262925,234.59363 89.69507,235.84611 89.841139,235.99282 C 89.987208,236.13953 90.675829,235.29189 91.371409,234.10917 z M 88.260779,234.99601 C 89.165512,233.83729 89.14667,233.79343 88.097187,234.61534 C 87.444813,235.12626 86.69044,235.3227 86.420803,235.05188 C 86.151174,234.78105 85.930562,234.95236 85.930562,235.43255 C 85.930562,236.71378 87.08898,236.49677 88.260779,234.99601 z M 87.097123,232.38714 C 87.663674,231.74891 87.593757,230.89384 86.853079,229.40256 C 85.568411,226.81601 86.241758,223.22542 88.280456,221.79116 C 89.716074,220.78117 89.725186,220.62057 88.544937,217.12886 C 86.045316,209.73389 87.773361,201.88153 91.900371,201.88153 C 92.906008,201.88153 93.268434,202.83822 93.649279,206.4981 C 93.913507,209.03721 94.296541,211.28226 94.500479,211.48709 C 95.539546,212.53076 95.559931,210.51145 94.560568,205.53416 C 93.950603,202.49623 93.321721,198.832 93.163053,197.39143 L 92.874566,194.77221 L 92.755334,197.49739 C 92.657113,199.74218 92.303672,200.30637 90.750335,200.69796 C 87.544457,201.50614 85.784128,205.27137 86.157656,210.52137 C 86.334689,213.00952 87.045759,216.14508 87.737822,217.48929 C 88.980529,219.90304 88.971692,219.95258 87.024249,221.49121 C 85.021902,223.07322 84.907707,224.14458 86.043535,230.69264 C 86.231134,231.77415 85.838688,232.25532 84.627908,232.42832 C 82.364112,232.75175 81.210746,229.62278 81.856205,224.90896 C 82.292683,221.72139 82.839818,220.98457 84.583889,221.23567 C 84.867675,221.27653 84.455948,219.88519 83.668927,218.1438 C 81.859916,214.1411 81.724941,207.05528 83.408544,204.47443 C 84.119457,203.38464 84.279719,202.62988 83.800206,202.62988 C 80.852759,202.62988 79.66658,213.24123 82.155689,217.3414 C 83.571779,219.67404 83.571801,219.72229 82.15709,221.00824 C 78.154229,224.64678 79.434301,232.7537 84.067914,233.10985 C 85.297261,233.20433 86.660407,232.87912 87.097123,232.38714 z M 114.48473,224.89329 C 116.98343,222.57539 118.9235,214.90813 118.8873,207.49415 C 118.86453,202.83079 118.34446,199.97128 116.53465,194.55869 C 112.86589,183.58643 112.00763,178.20269 112.00763,166.16126 C 112.00763,160.15148 111.87484,155.37471 111.71254,155.5462 C 111.55024,155.7177 111.19623,158.73233 110.92585,162.2454 C 110.15427,172.27075 111.60589,183.68883 114.82325,192.90133 C 117.28781,199.95832 117.56611,201.52156 117.55439,208.2425 C 117.53554,219.05153 115.26162,225.21806 110.98372,226.06112 C 109.41697,226.36989 109.41752,226.37435 111.03476,226.47516 C 111.93392,226.53122 113.4864,225.81937 114.48473,224.89329 z M 94.81245,225.51691 C 94.844801,224.72803 94.668706,224.28603 94.42113,224.5347 C 94.173555,224.78338 94.147083,225.42882 94.362315,225.96904 C 94.600153,226.56602 94.776702,226.3887 94.81245,225.51691 z M 107.41963,219.09358 C 107.41963,218.06459 107.25053,217.64365 107.04384,218.15814 C 106.83715,218.67263 106.83715,219.51452 107.04384,220.02901 C 107.25053,220.5435 107.41963,220.12256 107.41963,219.09358 z M 94.752033,217.471 C 94.817614,216.37278 95.088256,214.85737 95.35346,214.10342 C 95.723166,213.05238 95.623604,212.92862 94.92666,213.57288 C 94.416317,214.04465 94.152559,215.52153 94.325234,216.94045 C 94.575253,218.99488 94.655109,219.09414 94.752033,217.471 z M 108.60697,215.57119 C 109.0113,214.50464 108.92572,214.41869 108.18988,215.15226 C 107.6807,215.6599 107.45178,216.26374 107.68117,216.49415 C 107.91057,216.72456 108.32718,216.30923 108.60697,215.57119 z M 108.60672,210.58734 C 108.3887,209.40744 108.02517,207.51223 107.79887,206.37574 C 107.57257,205.23927 107.76821,203.59477 108.23363,202.7213 C 109.29498,200.72938 108.21728,200.61601 106.98965,202.59044 C 106.25344,203.77451 106.35724,204.86175 107.54336,208.39015 C 108.34623,210.7785 108.82475,211.76723 108.60672,210.58734 z M 85.871739,203.81476 C 85.90409,203.02588 85.728002,202.58389 85.480419,202.83255 C 85.232844,203.08123 85.206379,203.72668 85.421604,204.26689 C 85.659442,204.86388 85.835991,204.68655 85.871739,203.81476 z"
         id="path5078" />
    </g>
    <text
       xml:space="preserve"
       style="font-size:82.20056152px;font-style:normal;font-variant:normal;font-weight:normal;font-stretch:normal;text-align:start;line-height:89.99999762%;writing-mode:lr-tb;text-anchor:start;fill:#000000;fill-opacity:1;stroke:none;stroke-width:1px;stroke-linecap:butt;stroke-linejoin:miter;stroke-opacity:1;font-family:Century Schoolbook L;-inkscape-font-specification:Century Schoolbook L"
       x="150.56505"
       y="236.815"
       id="text5139"
       sodipodi:linespacing="89.999998%"><tspan
         sodipodi:role="line"
         id="tspan5141"
         x="150.56505"
         y="236.815"
         dx="0 -6.4871173 -6.4871173 -14.92037 0 -7.1358294 -12.974236 -10.379388">NEW GAUL</tspan><tspan
         sodipodi:role="line"
         x="150.56505"
         y="310.7955"
         id="tspan5143"
         dx="0 -5.8384056 -2.594847 -10.379388 -12.325524 -11.676812 -4.5409818">STUDIOS</tspan></text>
  </g>
</svg>
